<svg viewBox="0 0 80 80" fill="none" xmlns="http://www.w3.org/2000/svg">
  <path d="M17.074 23.303v-12.46h6.601v12.46h-6.6Zm6.607 0v-12.46h6.6v12.46h-6.6Zm6.606 0v-12.46h6.601v12.46h-6.6Zm6.607 0v-12.46h6.6v12.46h-6.6Zm6.606 0v-12.46h6.601v12.46H43.5Zm6.606 0v-12.46h6.602v12.46h-6.602Zm0 12v-12.46h6.602v12.46h-6.602Zm6.607 0v-12.46h6.601v12.46h-6.601Zm-19.825 12h-6.6v-6.112h6.6v6.112Zm.006 0v-12.46h6.6v12.46h-6.6Zm6.606 0v-12.46h6.601v12.46H43.5Zm6.606 0v-12.46h6.602v12.46h-6.602Zm-13.218 5.888h-6.6v-6.349h6.6v6.349Zm6.607 0h-6.601v-6.349h6.6v6.349ZM30.287 71.303v-12.46h6.601v12.46h-6.6Zm6.607 0v-12.46h6.6v12.46h-6.6Z" fill="currentColor"/>
</svg>
