<svg width="80" height="80" viewBox="0 0 80 80" fill="none" xmlns="http://www.w3.org/2000/svg">
<path d="M17.0742 23.3032V10.8423H23.6753V23.3032H17.0742ZM23.6807 23.3032V10.8423H30.2817V23.3032H23.6807ZM30.2871 23.3032V10.8423H36.8882V23.3032H30.2871ZM36.8936 23.3032V10.8423H43.4946V23.3032H36.8936ZM43.5 23.3032V10.8423H50.1011V23.3032H43.5ZM50.1064 23.3032V10.8423H56.7075V23.3032H50.1064ZM50.1064 35.3032V22.8423H56.7075V35.3032H50.1064ZM56.7129 35.3032V22.8423H63.314V35.3032H56.7129ZM36.8882 47.3032H30.2871V41.1909H36.8882V47.3032ZM36.8936 47.3032V34.8423H43.4946V47.3032H36.8936ZM43.5 47.3032V34.8423H50.1011V47.3032H43.5ZM50.1064 47.3032V34.8423H56.7075V47.3032H50.1064ZM36.8882 53.1909H30.2871V46.8423H36.8882V53.1909ZM43.4946 53.1909H36.8936V46.8423H43.4946V53.1909ZM30.2871 71.3032V58.8423H36.8882V71.3032H30.2871ZM36.8936 71.3032V58.8423H43.4946V71.3032H36.8936Z" fill="black"/>
</svg>
