<svg viewBox="0 0 235 85" fill="none" xmlns="http://www.w3.org/2000/svg">
  <path d="M71.792 10.74h-5.454c-.098 0-.168-.02-.21-.06a.182.182 0 0 1-.064-.146c0-.062.022-.112.064-.151.042-.036.112-.054.21-.054h5.454c.1 0 .17.018.21.054.042.039.063.09.063.151 0 .062-.02.11-.063.147-.04.039-.11.058-.21.058Zm-9.385 2.132h1.3l-.343 2.563c-.02.137-.057.233-.112.289a.265.265 0 0 1-.195.078.271.271 0 0 1-.2-.078c-.053-.056-.088-.152-.108-.289l-.342-2.563Zm12.783 3.701c0 .375-.048.772-.146 1.192-.098.416-.285.9-.562 1.45-.276.553-.478.885-.605.996a.177.177 0 0 1-.127.059.207.207 0 0 1-.151-.064.193.193 0 0 1-.059-.142c0-.032.011-.068.034-.107.358-.654.614-1.248.767-1.782.153-.534.23-1.068.23-1.602 0-.537-.077-1.072-.23-1.606-.153-.534-.409-1.13-.767-1.787a.217.217 0 0 1-.034-.108c0-.055.02-.102.059-.141a.216.216 0 0 1 .151-.059c.046 0 .088.018.127.054.12.11.317.434.59.972.274.537.463 1.012.567 1.425.104.414.156.83.156 1.25Zm36.036 0c0 .375-.049.772-.147 1.192-.098.416-.285.9-.561 1.45-.277.553-.479.885-.606.996a.176.176 0 0 1-.127.059.206.206 0 0 1-.151-.064.194.194 0 0 1-.059-.142c0-.032.012-.068.034-.107.358-.654.614-1.248.767-1.782a5.788 5.788 0 0 0 .229-1.602c0-.537-.076-1.072-.229-1.606-.153-.534-.409-1.13-.767-1.787a.225.225 0 0 1-.034-.108c0-.055.02-.102.059-.141a.215.215 0 0 1 .151-.059c.046 0 .088.018.127.054.121.11.317.434.591.972.273.537.462 1.012.566 1.425.105.414.157.83.157 1.25Zm73.794-3.999-3.301 7.07c-.056.121-.127.181-.215.181a.204.204 0 0 1-.147-.063.182.182 0 0 1-.058-.132c0-.04.016-.093.049-.161l3.296-7.07a.38.38 0 0 1 .102-.147.2.2 0 0 1 .117-.034c.056 0 .103.02.142.063.042.04.063.083.063.132 0 .036-.016.09-.048.161Zm3.51.298h1.299l-.342 2.563c-.019.137-.057.233-.112.289a.264.264 0 0 1-.195.078.273.273 0 0 1-.201-.078c-.052-.056-.087-.152-.107-.289l-.342-2.563Zm14.507-.298-3.301 7.07c-.055.121-.127.181-.215.181a.2.2 0 0 1-.146-.063.183.183 0 0 1-.059-.132.42.42 0 0 1 .049-.161l3.296-7.07a.38.38 0 0 1 .103-.147.196.196 0 0 1 .117-.034c.055 0 .102.02.141.063.043.04.064.083.064.132 0 .036-.016.09-.049.161Zm3.511.298h1.299l-.342 2.563c-.02.137-.057.233-.112.289a.268.268 0 0 1-.196.078.271.271 0 0 1-.2-.078c-.052-.056-.088-.152-.107-.289l-.342-2.563ZM64.902 23.574l-3.3 7.07c-.056.121-.127.181-.215.181a.202.202 0 0 1-.147-.063.182.182 0 0 1-.058-.132c0-.04.016-.093.048-.161l3.296-7.07a.383.383 0 0 1 .103-.147.2.2 0 0 1 .117-.034c.055 0 .103.02.142.063.042.04.063.083.063.132 0 .036-.016.09-.049.161Zm3.511.298h1.299l-.342 2.564c-.02.136-.057.232-.112.288a.265.265 0 0 1-.195.078.271.271 0 0 1-.2-.078c-.053-.056-.089-.152-.108-.288l-.342-2.564Zm32.525-.298-3.301 7.07c-.056.121-.127.181-.215.181a.201.201 0 0 1-.147-.063.182.182 0 0 1-.058-.132.41.41 0 0 1 .049-.161l3.296-7.07a.38.38 0 0 1 .102-.147.2.2 0 0 1 .117-.034c.056 0 .103.02.142.063.042.04.063.083.063.132 0 .036-.016.09-.048.161Zm3.51.298h1.299l-.342 2.564c-.019.136-.057.232-.112.288a.264.264 0 0 1-.195.078.273.273 0 0 1-.201-.078c-.052-.056-.087-.152-.107-.288l-.342-2.564Zm68.56-.298-3.301 7.07c-.055.121-.127.181-.215.181a.2.2 0 0 1-.146-.063.183.183 0 0 1-.059-.132c0-.04.016-.093.049-.161l3.296-7.07a.391.391 0 0 1 .102-.147.202.202 0 0 1 .118-.034c.055 0 .102.02.141.063.042.04.064.083.064.132 0 .036-.017.09-.049.161Zm3.511.298h1.298l-.341 2.564c-.02.136-.057.232-.113.288a.264.264 0 0 1-.195.078.271.271 0 0 1-.2-.078c-.052-.056-.088-.152-.108-.288l-.341-2.564Zm14.506-.298-3.3 7.07c-.056.121-.127.181-.215.181a.202.202 0 0 1-.147-.063.182.182 0 0 1-.058-.132c0-.04.016-.093.049-.161l3.295-7.07a.38.38 0 0 1 .103-.147.2.2 0 0 1 .117-.034c.055 0 .103.02.142.063.042.04.063.083.063.132 0 .036-.016.09-.049.161Zm3.511.298h1.299l-.342 2.564c-.019.136-.057.232-.112.288a.264.264 0 0 1-.195.078.272.272 0 0 1-.201-.078c-.052-.056-.088-.152-.107-.288l-.342-2.564ZM44.228 39.525h1.334l-1.45 2.696c-.089.163-.194.244-.318.244a.287.287 0 0 1-.21-.088.278.278 0 0 1-.083-.205c0-.033.005-.069.015-.107l.712-2.54Zm8.663-4.95-3.301 7.07c-.056.12-.127.18-.215.18a.201.201 0 0 1-.147-.063.182.182 0 0 1-.058-.132c0-.04.016-.093.049-.161l3.296-7.07a.383.383 0 0 1 .102-.147.199.199 0 0 1 .117-.034c.056 0 .103.02.142.063.042.04.064.083.064.132 0 .036-.017.09-.05.161Zm3.51.297h1.3l-.343 2.563c-.02.137-.057.233-.112.289a.265.265 0 0 1-.195.078.271.271 0 0 1-.2-.078c-.053-.056-.088-.152-.108-.288l-.342-2.564Zm32.525-.298-3.301 7.07c-.055.121-.127.181-.215.181a.201.201 0 0 1-.146-.063.182.182 0 0 1-.059-.132.41.41 0 0 1 .049-.161l3.296-7.07a.383.383 0 0 1 .102-.147.2.2 0 0 1 .117-.034c.056 0 .103.02.142.063.043.04.064.083.064.132 0 .036-.017.09-.05.161Zm3.51.298h1.3l-.342 2.563c-.02.137-.057.233-.113.289a.265.265 0 0 1-.195.078.271.271 0 0 1-.2-.078c-.052-.056-.088-.152-.108-.288l-.342-2.564Zm15.391 8.867h-5.454c-.098 0-.168-.02-.21-.058a.182.182 0 0 1-.063-.147c0-.062.021-.112.063-.151.042-.036.112-.054.21-.054h5.454c.101 0 .171.018.21.054.042.039.064.09.064.151 0 .062-.022.11-.064.147-.039.039-.109.058-.21.058Zm6.006 0h-5.454c-.098 0-.168-.02-.21-.058a.183.183 0 0 1-.064-.147c0-.062.022-.112.064-.151.042-.036.112-.054.21-.054h5.454c.101 0 .171.018.21.054.042.039.063.09.063.151 0 .062-.021.11-.063.147-.039.039-.109.058-.21.058Zm6.006 0h-5.454c-.098 0-.168-.02-.21-.058a.18.18 0 0 1-.064-.147c0-.062.021-.112.064-.151.042-.036.112-.054.21-.054h5.454c.101 0 .171.018.21.054.042.039.063.09.063.151 0 .062-.021.11-.063.147-.039.039-.109.058-.21.058Zm6.006 0h-5.454c-.098 0-.168-.02-.21-.058a.18.18 0 0 1-.064-.147c0-.062.021-.112.064-.151.042-.036.112-.054.21-.054h5.454c.101 0 .171.018.21.054.042.039.063.09.063.151 0 .062-.021.11-.063.147-.039.039-.109.058-.21.058Zm35.151-9.165-3.301 7.07c-.055.121-.127.181-.215.181a.2.2 0 0 1-.146-.063.183.183 0 0 1-.059-.132.42.42 0 0 1 .049-.161l3.296-7.07a.38.38 0 0 1 .103-.147.196.196 0 0 1 .117-.034c.055 0 .102.02.141.063.043.04.064.083.064.132 0 .036-.016.09-.049.161Zm3.511.298h1.299l-.342 2.563c-.02.137-.057.233-.112.289a.268.268 0 0 1-.196.078.271.271 0 0 1-.2-.078c-.052-.056-.088-.152-.107-.288l-.342-2.564Zm14.507-.298-3.301 7.07c-.055.121-.127.181-.215.181a.2.2 0 0 1-.146-.063.179.179 0 0 1-.059-.132c0-.04.016-.093.049-.161l3.296-7.07a.391.391 0 0 1 .102-.147.2.2 0 0 1 .117-.034c.056 0 .103.02.142.063.042.04.063.083.063.132 0 .036-.016.09-.048.161Zm3.51.298h1.299l-.342 2.563c-.019.137-.057.233-.112.289a.264.264 0 0 1-.195.078.27.27 0 0 1-.2-.078c-.052-.056-.088-.152-.108-.288l-.342-2.564Zm15.391 8.867h-5.454c-.098 0-.168-.02-.21-.058a.182.182 0 0 1-.063-.147c0-.062.021-.112.063-.151.042-.036.112-.054.21-.054h5.454c.101 0 .171.018.21.054.042.039.063.09.063.151 0 .062-.021.11-.063.147-.039.039-.109.058-.21.058Zm6.006 0h-5.454c-.098 0-.168-.02-.21-.058a.183.183 0 0 1-.064-.147c0-.062.022-.112.064-.151.042-.036.112-.054.21-.054h5.454c.101 0 .171.018.21.054.042.039.063.09.063.151 0 .062-.021.11-.063.147-.039.039-.109.058-.21.058Zm6.006 0h-5.454c-.098 0-.168-.02-.21-.058a.18.18 0 0 1-.064-.147c0-.062.021-.112.064-.151.042-.036.112-.054.21-.054h5.454c.101 0 .171.018.21.054.042.039.063.09.063.151 0 .062-.021.11-.063.147-.039.039-.109.058-.21.058Zm6.006 0h-5.454c-.098 0-.168-.02-.21-.058a.18.18 0 0 1-.064-.147c0-.062.021-.112.064-.151.042-.036.112-.054.21-.054h5.454c.101 0 .171.018.21.054.042.039.063.09.063.151 0 .062-.021.11-.063.147-.039.039-.109.058-.21.058ZM40.879 45.574l-3.3 7.07c-.056.121-.128.181-.216.181a.201.201 0 0 1-.146-.063.182.182 0 0 1-.059-.132.41.41 0 0 1 .049-.161l3.296-7.07a.382.382 0 0 1 .102-.147.199.199 0 0 1 .118-.034c.055 0 .102.02.141.063.043.04.064.083.064.132a.44.44 0 0 1-.05.161Zm3.726.034 1.152.997.107.122c.01.016.015.042.015.078a.207.207 0 0 1-.064.151.199.199 0 0 1-.146.059c-.049 0-.11-.033-.186-.098l-1.152-.996c-.081-.072-.122-.138-.122-.2 0-.059.02-.108.059-.147a.207.207 0 0 1 .15-.063c.05 0 .112.032.187.097Zm8.535 3.272v.586h-4.185v-.586h4.185Zm6.005 0v.586h-4.184v-.586h4.184Zm6.006 0v.586h-4.184v-.586h4.184Zm3.101 1.645h1.333l-1.45 2.696c-.088.163-.194.244-.318.244a.287.287 0 0 1-.21-.088.279.279 0 0 1-.083-.205c0-.033.005-.069.015-.107l.713-2.54Zm8.662-4.95-3.3 7.07c-.056.12-.128.18-.216.18a.201.201 0 0 1-.146-.063.182.182 0 0 1-.059-.132c0-.04.017-.093.05-.161l3.295-7.07a.383.383 0 0 1 .103-.147.2.2 0 0 1 .117-.034c.055 0 .102.02.141.063.043.04.064.083.064.132 0 .036-.016.09-.049.161Zm3.51.297h1.3l-.342 2.563c-.02.137-.057.233-.113.289a.265.265 0 0 1-.195.078.271.271 0 0 1-.2-.078c-.052-.056-.088-.152-.107-.288l-.342-2.564Zm14.508-.298-3.301 7.07c-.055.121-.127.181-.215.181a.201.201 0 0 1-.147-.063.182.182 0 0 1-.058-.132c0-.04.016-.093.049-.161l3.296-7.07a.383.383 0 0 1 .102-.147.2.2 0 0 1 .117-.034c.056 0 .103.02.142.063.042.04.064.083.064.132 0 .036-.017.09-.05.161Zm3.51.298h1.3l-.343 2.563c-.02.137-.057.233-.112.289a.265.265 0 0 1-.195.078.271.271 0 0 1-.2-.078c-.052-.056-.088-.152-.108-.288l-.342-2.564Zm30.801 3.701c0 .375-.049.772-.146 1.192-.098.416-.285.9-.562 1.45-.277.553-.478.885-.605.996a.178.178 0 0 1-.127.059.208.208 0 0 1-.21-.206c0-.032.011-.068.034-.107.358-.654.614-1.248.767-1.782a5.788 5.788 0 0 0 .229-1.602c0-.537-.076-1.072-.229-1.606-.153-.534-.409-1.13-.767-1.787a.214.214 0 0 1-.034-.108c0-.055.019-.102.058-.141a.217.217 0 0 1 .152-.059c.045 0 .088.018.127.054.12.11.317.434.591.971.273.538.462 1.013.566 1.426.104.414.156.83.156 1.25Zm19.741-3.999-3.3 7.07c-.056.121-.127.181-.215.181a.202.202 0 0 1-.147-.063.182.182 0 0 1-.058-.132c0-.04.016-.093.048-.161l3.296-7.07a.38.38 0 0 1 .103-.147.199.199 0 0 1 .117-.034c.055 0 .103.02.142.063.042.04.063.083.063.132 0 .036-.016.09-.049.161Zm3.511.298h1.299l-.342 2.563c-.019.137-.057.233-.112.289a.264.264 0 0 1-.195.078.272.272 0 0 1-.201-.078c-.052-.056-.088-.152-.107-.288l-.342-2.564Zm14.507-.298-3.301 7.07c-.055.121-.127.181-.215.181a.2.2 0 0 1-.146-.063.183.183 0 0 1-.059-.132.42.42 0 0 1 .049-.161l3.296-7.07a.38.38 0 0 1 .103-.147.196.196 0 0 1 .117-.034c.055 0 .102.02.141.063.043.04.064.083.064.132 0 .036-.016.09-.049.161Zm3.511.298h1.299l-.342 2.563c-.02.137-.057.233-.113.289a.264.264 0 0 1-.195.078.271.271 0 0 1-.2-.078c-.052-.056-.088-.152-.108-.288l-.341-2.564Zm14.507-.298-3.301 7.07c-.056.121-.127.181-.215.181a.204.204 0 0 1-.147-.063.182.182 0 0 1-.058-.132c0-.04.016-.093.049-.161l3.296-7.07a.38.38 0 0 1 .102-.147.2.2 0 0 1 .117-.034c.056 0 .103.02.142.063.042.04.063.083.063.132 0 .036-.016.09-.048.161Zm3.51.298h1.299l-.342 2.563c-.019.137-.057.233-.112.289a.264.264 0 0 1-.195.078.273.273 0 0 1-.201-.078c-.052-.056-.087-.152-.107-.288l-.342-2.564Zm30.801 3.701c0 .375-.049.772-.146 1.192-.098.416-.285.9-.562 1.45-.277.553-.478.885-.605.996a.178.178 0 0 1-.127.059.208.208 0 0 1-.21-.206c0-.032.011-.068.034-.107.358-.654.613-1.248.766-1.782a5.79 5.79 0 0 0 .23-1.602c0-.537-.077-1.072-.23-1.606-.153-.534-.408-1.13-.766-1.787a.214.214 0 0 1-.034-.108c0-.055.019-.102.058-.141a.217.217 0 0 1 .152-.059c.045 0 .088.018.127.054.12.11.317.434.59.971.274.538.463 1.013.567 1.426.104.414.156.83.156 1.25Zm7.979-.693v.586h-4.185v-.586h4.185Zm6.005 0v.586h-4.184v-.586h4.184ZM28.867 56.574l-3.3 7.07c-.056.121-.128.181-.215.181a.201.201 0 0 1-.147-.063.182.182 0 0 1-.058-.132.41.41 0 0 1 .048-.161l3.296-7.07a.382.382 0 0 1 .103-.147.199.199 0 0 1 .117-.034c.055 0 .103.02.142.063.042.04.063.083.063.132 0 .036-.016.09-.049.161Zm3.51.298h1.3l-.342 2.563c-.02.137-.057.233-.112.289a.265.265 0 0 1-.196.078.271.271 0 0 1-.2-.078c-.052-.056-.088-.152-.107-.288l-.342-2.564Zm32.525-.298-3.3 7.07c-.056.121-.127.181-.215.181a.202.202 0 0 1-.147-.063.182.182 0 0 1-.058-.132c0-.04.016-.093.048-.161l3.296-7.07a.383.383 0 0 1 .103-.147.2.2 0 0 1 .117-.034c.055 0 .103.02.142.063.042.04.063.083.063.132 0 .036-.016.09-.049.161Zm3.511.298h1.299l-.342 2.563c-.02.137-.057.233-.112.289a.265.265 0 0 1-.195.078.271.271 0 0 1-.2-.078c-.053-.056-.089-.152-.108-.288l-.342-2.564Zm14.507-.298-3.3 7.07c-.056.121-.128.181-.216.181a.201.201 0 0 1-.146-.063.182.182 0 0 1-.059-.132.41.41 0 0 1 .049-.161l3.296-7.07a.383.383 0 0 1 .103-.147.199.199 0 0 1 .117-.034c.055 0 .102.02.141.063.043.04.064.083.064.132 0 .036-.016.09-.05.161Zm4.116 3.994c0-.374.049-.771.147-1.191.097-.42.284-.905.561-1.455.277-.55.479-.882.606-.996a.185.185 0 0 1 .127-.054c.058 0 .107.02.146.059a.185.185 0 0 1 .063.141.217.217 0 0 1-.034.108c-.358.657-.613 1.253-.766 1.787a5.79 5.79 0 0 0-.23 1.601c0 .538.077 1.073.23 1.607.153.534.408 1.128.766 1.782.023.04.034.075.034.107a.186.186 0 0 1-.063.142.19.19 0 0 1-.146.063.185.185 0 0 1-.127-.053c-.12-.11-.318-.435-.591-.972-.274-.537-.463-1.012-.567-1.426a5.097 5.097 0 0 1-.156-1.25Zm8.78 5.171H90.36c-.097 0-.167-.02-.21-.058a.182.182 0 0 1-.063-.147c0-.062.021-.112.063-.151.043-.036.113-.054.21-.054h5.454c.101 0 .171.018.21.054.043.039.064.09.064.151 0 .062-.021.11-.064.147-.039.039-.109.058-.21.058Zm6.005 0h-5.454c-.098 0-.168-.02-.21-.058a.182.182 0 0 1-.063-.147c0-.062.02-.112.063-.151.043-.036.112-.054.21-.054h5.454c.101 0 .171.018.21.054.043.039.064.09.064.151a.18.18 0 0 1-.064.147c-.039.039-.109.058-.21.058Zm6.006 0h-5.454c-.098 0-.168-.02-.21-.058a.182.182 0 0 1-.063-.147c0-.062.021-.112.063-.151.042-.036.112-.054.21-.054h5.454c.101 0 .171.018.21.054.042.039.064.09.064.151 0 .062-.022.11-.064.147-.039.039-.109.058-.21.058Zm2.466-4.214h1.333l-1.45 2.696c-.088.162-.194.244-.318.244a.288.288 0 0 1-.21-.088.28.28 0 0 1-.083-.205c0-.033.005-.069.015-.108l.713-2.539Zm8.662-4.95-3.301 7.07c-.055.12-.127.18-.215.18a.2.2 0 0 1-.146-.063.183.183 0 0 1-.059-.132.42.42 0 0 1 .049-.161l3.296-7.07a.38.38 0 0 1 .103-.147.196.196 0 0 1 .117-.034c.055 0 .102.02.141.063.043.04.064.083.064.132 0 .036-.016.09-.049.161Zm3.511.297h1.299l-.342 2.563c-.02.137-.057.233-.112.289a.268.268 0 0 1-.196.078.271.271 0 0 1-.2-.078c-.052-.056-.088-.152-.107-.288l-.342-2.564Zm14.507-.298-3.301 7.07c-.055.121-.127.181-.215.181a.2.2 0 0 1-.146-.063.179.179 0 0 1-.059-.132c0-.04.016-.093.049-.161l3.296-7.07a.38.38 0 0 1 .102-.147.2.2 0 0 1 .117-.034c.056 0 .103.02.142.063.042.04.063.083.063.132 0 .036-.016.09-.048.161Zm3.51.298h1.299l-.342 2.563c-.019.137-.057.233-.112.289a.264.264 0 0 1-.195.078.27.27 0 0 1-.2-.078c-.052-.056-.088-.152-.108-.288l-.342-2.564Zm14.507-.298-3.301 7.07c-.055.121-.127.181-.214.181a.2.2 0 0 1-.147-.063.182.182 0 0 1-.058-.132c0-.04.016-.093.048-.161l3.296-7.07a.38.38 0 0 1 .103-.147.196.196 0 0 1 .117-.034c.055 0 .103.02.142.063.042.04.063.083.063.132 0 .036-.016.09-.049.161Zm3.511.298h1.299l-.342 2.563c-.02.137-.057.233-.112.289a.265.265 0 0 1-.196.078.271.271 0 0 1-.2-.078c-.052-.056-.088-.152-.107-.288l-.342-2.564Zm14.507-.298-3.301 7.07c-.055.121-.127.181-.215.181a.2.2 0 0 1-.146-.063.183.183 0 0 1-.059-.132c0-.04.016-.093.049-.161l3.296-7.07a.391.391 0 0 1 .102-.147.202.202 0 0 1 .118-.034c.055 0 .102.02.141.063.042.04.064.083.064.132 0 .036-.017.09-.049.161Zm3.511.298h1.298l-.341 2.563c-.02.137-.057.233-.113.289a.264.264 0 0 1-.195.078.271.271 0 0 1-.2-.078c-.052-.056-.088-.152-.108-.288l-.341-2.564Zm32.524-.298-3.301 7.07c-.055.121-.127.181-.215.181a.2.2 0 0 1-.146-.063.183.183 0 0 1-.059-.132.42.42 0 0 1 .049-.161l3.296-7.07a.38.38 0 0 1 .103-.147.196.196 0 0 1 .117-.034c.055 0 .102.02.141.063.043.04.064.083.064.132 0 .036-.016.09-.049.161Zm3.511.298h1.299l-.342 2.563c-.02.137-.057.233-.113.289a.264.264 0 0 1-.195.078.271.271 0 0 1-.2-.078c-.052-.056-.088-.152-.107-.288l-.342-2.564ZM2.954 71.568c0-.374.049-.771.147-1.191.097-.42.284-.905.561-1.455.277-.55.479-.882.606-.996a.185.185 0 0 1 .127-.054c.058 0 .107.02.146.059a.186.186 0 0 1 .063.141.217.217 0 0 1-.034.108c-.358.657-.613 1.253-.766 1.787a5.79 5.79 0 0 0-.23 1.601c0 .538.077 1.073.23 1.607.153.534.408 1.128.766 1.782.023.04.034.075.034.108a.186.186 0 0 1-.063.141.191.191 0 0 1-.146.063.185.185 0 0 1-.127-.053c-.12-.11-.318-.435-.591-.972-.274-.537-.462-1.012-.567-1.426a5.098 5.098 0 0 1-.156-1.25Zm5.24.957h1.332l-1.45 2.696c-.088.162-.194.244-.317.244a.287.287 0 0 1-.21-.088.279.279 0 0 1-.083-.205c0-.033.005-.069.014-.108l.713-2.539Zm8.661-4.95-3.3 7.07c-.056.12-.127.18-.215.18a.201.201 0 0 1-.147-.063.182.182 0 0 1-.058-.132c0-.04.016-.093.049-.161l3.296-7.07a.383.383 0 0 1 .102-.147.2.2 0 0 1 .117-.034c.056 0 .103.02.142.063.042.04.063.083.063.132 0 .036-.016.09-.049.161Zm3.511.297h1.299l-.342 2.564c-.02.136-.057.232-.112.288a.265.265 0 0 1-.195.078.271.271 0 0 1-.2-.078c-.053-.056-.088-.152-.108-.288l-.342-2.564Zm36.64 3.696c0-.374.05-.771.147-1.191.098-.42.285-.905.562-1.455.276-.55.478-.882.605-.996a.185.185 0 0 1 .127-.054c.059 0 .108.02.147.059a.186.186 0 0 1 .063.141.217.217 0 0 1-.034.108c-.358.657-.614 1.253-.767 1.787a5.793 5.793 0 0 0-.229 1.601c0 .538.076 1.073.23 1.607.152.534.408 1.128.766 1.782.023.04.034.075.034.108a.186.186 0 0 1-.063.141.191.191 0 0 1-.147.063.185.185 0 0 1-.127-.053c-.12-.11-.317-.435-.59-.972-.274-.537-.463-1.012-.567-1.426a5.097 5.097 0 0 1-.156-1.25Zm8.78 5.171h-5.454c-.098 0-.168-.02-.21-.058a.182.182 0 0 1-.063-.147c0-.062.02-.112.063-.151.042-.036.112-.054.21-.054h5.454c.101 0 .171.018.21.054.042.039.064.09.064.151 0 .062-.022.11-.064.147-.039.039-.109.058-.21.058Zm2.466-4.214h1.333l-1.45 2.696c-.088.162-.194.244-.318.244a.287.287 0 0 1-.21-.088.279.279 0 0 1-.083-.205c0-.033.005-.069.015-.108l.713-2.539Zm6.772-.957c0-.374.05-.771.147-1.191.098-.42.285-.905.561-1.455.277-.55.479-.882.606-.996a.185.185 0 0 1 .127-.054c.058 0 .107.02.146.059a.186.186 0 0 1 .064.141.217.217 0 0 1-.034.108c-.358.657-.614 1.253-.767 1.787a5.79 5.79 0 0 0-.23 1.601c0 .538.077 1.073.23 1.607.153.534.409 1.128.767 1.782.022.04.034.075.034.108a.186.186 0 0 1-.064.141.191.191 0 0 1-.146.063.185.185 0 0 1-.127-.053c-.12-.11-.317-.435-.59-.972-.274-.537-.463-1.012-.567-1.426a5.097 5.097 0 0 1-.157-1.25Zm8.78 5.171H78.35c-.098 0-.168-.02-.21-.058a.182.182 0 0 1-.064-.147c0-.062.021-.112.064-.151.042-.036.112-.054.21-.054h5.454c.1 0 .17.018.21.054.042.039.063.09.063.151 0 .062-.021.11-.063.147-.04.039-.11.058-.21.058Zm6.006 0h-5.454c-.098 0-.168-.02-.21-.058a.182.182 0 0 1-.064-.147c0-.062.021-.112.064-.151.042-.036.112-.054.21-.054h5.454c.1 0 .17.018.21.054.042.039.063.09.063.151 0 .062-.021.11-.064.147-.038.039-.109.058-.21.058Zm6.005 0h-5.454c-.097 0-.167-.02-.21-.058a.182.182 0 0 1-.063-.147c0-.062.021-.112.063-.151.043-.036.113-.054.21-.054h5.454c.101 0 .171.018.21.054.043.039.064.09.064.151 0 .062-.021.11-.064.147-.039.039-.109.058-.21.058Zm6.006 0h-5.454c-.098 0-.168-.02-.21-.058a.182.182 0 0 1-.063-.147c0-.062.02-.112.063-.151.043-.036.112-.054.21-.054h5.454c.101 0 .171.018.21.054.043.039.064.09.064.151a.18.18 0 0 1-.064.147c-.039.039-.109.058-.21.058Zm6.006 0h-5.454c-.098 0-.168-.02-.21-.058a.182.182 0 0 1-.063-.147c0-.062.021-.112.063-.151.042-.036.112-.054.21-.054h5.454c.101 0 .171.018.21.054.042.039.064.09.064.151 0 .062-.022.11-.064.147-.039.039-.109.058-.21.058Zm6.006 0h-5.454c-.098 0-.168-.02-.21-.058a.183.183 0 0 1-.064-.147c0-.062.022-.112.064-.151.042-.036.112-.054.21-.054h5.454c.101 0 .171.018.21.054.042.039.063.09.063.151 0 .062-.021.11-.063.147-.039.039-.109.058-.21.058Zm6.006 0h-5.454c-.098 0-.168-.02-.21-.058a.18.18 0 0 1-.064-.147c0-.062.021-.112.064-.151.042-.036.112-.054.21-.054h5.454c.101 0 .171.018.21.054.042.039.063.09.063.151 0 .062-.021.11-.063.147-.039.039-.109.058-.21.058Zm6.006 0h-5.454c-.098 0-.168-.02-.21-.058a.18.18 0 0 1-.064-.147c0-.062.021-.112.064-.151.042-.036.112-.054.21-.054h5.454c.101 0 .171.018.21.054.042.039.063.09.063.151 0 .062-.021.11-.063.147-.039.039-.109.058-.21.058Zm3.232-5.17c0-.375.049-.772.147-1.192.097-.42.284-.905.561-1.455.277-.55.479-.882.606-.996a.184.184 0 0 1 .127-.054c.058 0 .107.02.146.059a.187.187 0 0 1 .064.141.217.217 0 0 1-.035.108c-.358.657-.613 1.253-.766 1.787a5.79 5.79 0 0 0-.23 1.601c0 .538.077 1.073.23 1.607.153.534.408 1.128.766 1.782.023.04.035.075.035.108a.187.187 0 0 1-.064.141.19.19 0 0 1-.146.063.184.184 0 0 1-.127-.053c-.121-.11-.318-.435-.591-.972-.274-.537-.462-1.012-.567-1.426a5.106 5.106 0 0 1-.156-1.25Zm8.779 5.17h-5.454c-.097 0-.167-.02-.21-.058a.182.182 0 0 1-.063-.147c0-.062.021-.112.063-.151.043-.036.113-.054.21-.054h5.454c.101 0 .171.018.21.054.043.039.064.09.064.151a.18.18 0 0 1-.064.147c-.039.039-.109.058-.21.058Zm6.006 0h-5.454c-.097 0-.167-.02-.21-.058a.182.182 0 0 1-.063-.147c0-.062.021-.112.063-.151.043-.036.113-.054.21-.054h5.454c.101 0 .171.018.21.054.043.039.064.09.064.151a.18.18 0 0 1-.064.147c-.039.039-.109.058-.21.058Zm3.233-5.17c0-.375.049-.772.146-1.192.098-.42.285-.905.562-1.455.276-.55.478-.882.605-.996a.186.186 0 0 1 .127-.054c.059 0 .108.02.147.059a.186.186 0 0 1 .063.141.214.214 0 0 1-.034.108c-.358.657-.614 1.253-.767 1.787a5.789 5.789 0 0 0-.229 1.601c0 .538.076 1.073.229 1.607.153.534.409 1.128.767 1.782.023.04.034.075.034.108a.186.186 0 0 1-.063.141.191.191 0 0 1-.147.063.186.186 0 0 1-.127-.053c-.12-.11-.317-.435-.591-.972-.273-.537-.462-1.012-.566-1.426a5.106 5.106 0 0 1-.156-1.25Zm8.779 5.17h-5.454c-.098 0-.168-.02-.21-.058a.183.183 0 0 1-.064-.147c0-.062.022-.112.064-.151.042-.036.112-.054.21-.054h5.454c.101 0 .171.018.21.054.042.039.063.09.063.151 0 .062-.021.11-.063.147-.039.039-.109.058-.21.058Zm6.006 0h-5.454c-.098 0-.168-.02-.21-.058a.183.183 0 0 1-.064-.147c0-.062.022-.112.064-.151.042-.036.112-.054.21-.054h5.454c.101 0 .171.018.21.054.042.039.063.09.063.151 0 .062-.021.11-.063.147-.039.039-.109.058-.21.058Zm3.232-5.17c0-.375.049-.772.147-1.192.097-.42.285-.905.561-1.455.277-.55.479-.882.606-.996a.184.184 0 0 1 .127-.054c.058 0 .107.02.146.059a.184.184 0 0 1 .064.141.225.225 0 0 1-.034.108c-.359.657-.614 1.253-.767 1.787a5.79 5.79 0 0 0-.23 1.601c0 .538.077 1.073.23 1.607.153.534.408 1.128.767 1.782.022.04.034.075.034.108a.184.184 0 0 1-.064.141.19.19 0 0 1-.146.063.184.184 0 0 1-.127-.053c-.121-.11-.318-.435-.591-.972-.273-.537-.462-1.012-.566-1.426a5.06 5.06 0 0 1-.157-1.25Zm8.78 5.17h-5.454c-.098 0-.168-.02-.21-.058a.18.18 0 0 1-.064-.147c0-.062.021-.112.064-.151.042-.036.112-.054.21-.054h5.454c.101 0 .17.018.21.054.042.039.063.09.063.151 0 .062-.021.11-.063.147-.04.039-.109.058-.21.058Zm6.005 0h-5.454c-.097 0-.167-.02-.21-.058a.182.182 0 0 1-.063-.147c0-.062.021-.112.063-.151.043-.036.113-.054.21-.054h5.454c.101 0 .171.018.21.054.043.039.064.09.064.151a.18.18 0 0 1-.064.147c-.039.039-.109.058-.21.058Zm6.006 0h-5.454c-.097 0-.167-.02-.21-.058a.182.182 0 0 1-.063-.147c0-.062.021-.112.063-.151.043-.036.113-.054.21-.054h5.454c.101 0 .171.018.21.054.043.039.064.09.064.151a.18.18 0 0 1-.064.147c-.039.039-.109.058-.21.058Zm2.466-4.214h1.333l-1.45 2.696c-.088.162-.194.244-.317.244a.285.285 0 0 1-.21-.088.276.276 0 0 1-.083-.205.43.43 0 0 1 .014-.108l.713-2.539Zm8.662-4.95-3.301 7.07c-.055.12-.126.18-.214.18a.2.2 0 0 1-.147-.063.182.182 0 0 1-.058-.132c0-.04.016-.093.048-.161l3.296-7.07a.38.38 0 0 1 .103-.147.196.196 0 0 1 .117-.034c.055 0 .103.02.142.063.042.04.063.083.063.132 0 .036-.016.09-.049.161Zm3.511.297h1.299l-.342 2.564c-.02.136-.057.232-.112.288a.265.265 0 0 1-.196.078.271.271 0 0 1-.2-.078c-.052-.056-.088-.152-.107-.288l-.342-2.564Z" fill="currentColor"/>
</svg>
