<svg viewBox="0 0 499 78" fill="none" xmlns="http://www.w3.org/2000/svg">
  <path d="M0 12.003V.675h6.001v11.328H0Zm6.006 0V.675h6v11.328h-6Zm6.006 0V.675h6v11.328h-6Zm6.006 0V.675h6v11.328h-6Zm6.005 0V.675h6.001v11.328h-6Zm6.006 0V.675h6.001v11.328h-6Zm9.429 0V6.02h-3.423v-.717h4.14v6.699h-.717Zm-1.563-4.419h-1.86v-.718h2.578v5.137h-.718V7.584Zm16.158 4.419V.675h6v11.328h-6Zm6.006 0V.675h6v11.328h-6Zm6.005 0V.675h6.001v11.328h-6Zm6.006 0V.675h6.001v11.328h-6Zm6.006 0V.675h6.001v11.328h-6Zm9.429 0V6.02h-3.423v-.717h4.14v6.699h-.717Zm-1.563-4.419h-1.86v-.718h2.578v5.137h-.718V7.584Zm10.152 4.419V.675h6.001v11.328h-6.001Zm6.006 0V.675h6.001v11.328H102.1Zm6.005 0V.675h6.001v11.328h-6.001Zm9.429 0V6.02h-3.423v-.717h4.141v6.699h-.718Zm-1.562-4.419h-1.861v-.718h2.578v5.137h-.717V7.584Zm22.163 4.419V.675h6.001v11.328h-6.001Zm6.006 0V.675h6.001v11.328h-6.001Zm9.428 0V6.02h-3.423v-.717h4.141v6.699h-.718Zm-1.562-4.419h-1.861v-.718h2.579v5.137h-.718V7.584Zm4.145 4.419V.675h6.001v11.328h-6.001Zm6.006 0V.675h6.001v11.328h-6.001Zm6.006 0V.675h6.001v11.328h-6.001Zm6.006 0V.675h6.001v11.328h-6.001Zm6.006 0V.675h6.001v11.328h-6.001Zm6.006 0V.675h6.001v11.328h-6.001Zm9.428 0V6.02h-3.422v-.717h4.14v6.699h-.718Zm-1.562-4.419h-1.86v-.718h2.578v5.137h-.718V7.584Zm34.175 4.419V.675h6.001v11.328h-6.001Zm6.006 0V.675h6v11.328h-6Zm6.005 0V.675h6.001v11.328h-6.001Zm9.429 0V6.02h-3.423v-.717h4.141v6.699h-.718Zm-1.562-4.419h-1.861v-.718h2.578v5.137h-.717V7.584Zm22.163 4.419V.675h6.001v11.328h-6.001Zm6.006 0V.675h6.001v11.328h-6.001Zm9.428 0V6.02h-3.423v-.717h4.141v6.699h-.718Zm-1.562-4.419h-1.861v-.718h2.579v5.137h-.718V7.584Zm10.151 4.419V.675h6.001v11.328h-6.001Zm6.006 0V.675h6.001v11.328h-6.001Zm6.006 0V.675h6.001v11.328h-6.001Zm6.006 0V.675h6.001v11.328h-6.001Zm6.006 0V.675h6.001v11.328h-6.001Zm9.428 0V6.02h-3.423v-.717h4.141v6.699h-.718Zm-1.562-4.419h-1.861v-.718h2.579v5.137h-.718V7.584Zm10.151 4.419V.675h6.001v11.328h-6.001Zm6.006 0V.675h6.001v11.328h-6.001Zm6.006 0V.675h6.001v11.328h-6.001Zm9.429 0V6.02h-3.423v-.717h4.14v6.699h-.717Zm-1.563-4.419h-1.86v-.718h2.578v5.137h-.718V7.584Zm22.163 4.419V.675h6.001v11.328h-6.001Zm6.006 0V.675h6.001v11.328h-6.001Zm6.006 0V.675h6.001v11.328h-6.001Zm9.429 0V6.02h-3.423v-.717h4.14v6.699h-.717Zm-1.563-4.419h-1.86v-.718h2.578v5.137h-.718V7.584Zm4.146 4.419V.675h6.001v11.328h-6.001Zm6.005 0V.675h6.001v11.328h-6.001Zm6.006 0V.675h6.001v11.328h-6.001Zm6.006 0V.675h6.001v11.328h-6.001Zm6.006 0V.675h6.001v11.328h-6.001Zm6.006 0V.675h6.001v11.328h-6.001Zm6.006 0V.675h6.001v11.328h-6.001Zm9.428 0V6.02h-3.422v-.717h4.14v6.699h-.718Zm-1.562-4.419h-1.86v-.718h2.578v5.137h-.718V7.584Zm4.145 4.419V.675h6.001v11.328h-6.001Zm6.006 0V.675h6.001v11.328h-6.001Zm6.006 0V.675h6.001v11.328h-6.001Zm6.006 0V.675h6.001v11.328h-6.001Zm6.006 0V.675h6.001v11.328h-6.001Zm6.006 0V.675h6.001v11.328h-6.001Zm6.006 0V.675h6.001v11.328h-6.001Zm9.428 0V6.02h-3.423v-.717h4.141v6.699h-.718Zm-1.562-4.419h-1.861v-.718h2.579v5.137h-.718V7.584ZM0 23.003V11.675h6.001v11.328H0Zm6.006 0V11.675h6v11.328h-6Zm8.584 0h-.718v-6.7h4.14v.718H14.59v5.982Zm1.562-4.419v4.419h-.717v-5.137h2.578v.718h-1.86Zm7.867-1.563h-6.001v-.717h6v.718Zm0 1.563h-6.001v-.718h6v.718Zm6.005-1.563h-6v-.717h6v.718Zm0 1.563h-6v-.718h6v.718Zm.005 4.419V11.675h6.001v11.328h-6Zm6.006 0V11.675h6.001v11.328h-6Zm9.429 0V17.02H42.04v-.717h4.14v6.699h-.717ZM43.9 18.584h-1.86v-.718h2.578v5.137h-.718v-4.419Zm4.146 4.419V11.675h6v11.328h-6Zm6.006 0V11.675h6v11.328h-6Zm8.584 0h-.718v-6.7h4.14v.718h-3.422v5.982Zm1.562-4.419v4.419h-.718v-5.137h2.579v.718H64.2Zm7.866-1.563h-6v-.717h6v.718Zm0 1.563h-6v-.718h6v.718Zm6.006-1.563h-6v-.717h6v.718Zm0 1.563h-6v-.718h6v.718Zm.005 4.419V11.675h6.001v11.328h-6Zm6.006 0V11.675h6.001v11.328h-6.001Zm9.429 0V17.02h-3.423v-.717h4.14v6.699h-.717Zm-1.563-4.419h-1.86v-.718h2.578v5.137h-.718v-4.419Zm4.146 4.419V11.675h6.001v11.328h-6.001Zm6.006 0V11.675h6.001v11.328H102.1Zm6.005 0V11.675h6.001v11.328h-6.001Zm6.006 0V11.675h6.001v11.328h-6.001Zm9.429 0V17.02h-3.423v-.717h4.141v6.699h-.718Zm-1.562-4.419h-1.861v-.718h2.578v5.137h-.717v-4.419Zm16.157 4.419V11.675h6.001v11.328h-6.001Zm6.006 0V11.675h6.001v11.328h-6.001Zm9.428 0V11.675h.718v11.328h-.718Zm-1.562 0V11.675h.718v11.328h-.718Zm4.145 0V11.675h6.001v11.328h-6.001Zm6.006 0V11.675h6.001v11.328h-6.001Zm8.584 0h-.718v-6.7h4.141v.718h-3.423v5.982Zm1.563-4.419v4.419h-.718v-5.137h2.578v.718h-1.86Zm7.866-1.563h-6.001v-.717h6.001v.718Zm0 1.563h-6.001v-.718h6.001v.718Zm6.006-1.563h-6.001v-.717h6.001v.718Zm0 1.563h-6.001v-.718h6.001v.718Zm.005 4.419V11.675h6.001v11.328h-6.001Zm6.006 0V11.675h6v11.328h-6Zm9.428 0V17.02h-3.423v-.717h4.141v6.699h-.718Zm-1.562-4.419h-1.861v-.718h2.578v5.137h-.717v-4.419Zm28.169 4.419V11.675h6.001v11.328h-6.001Zm6.006 0V11.675h6v11.328h-6Zm6.005 0V11.675h6.001v11.328h-6.001Zm6.006 0V11.675h6.001v11.328h-6.001Zm9.429 0V17.02h-3.423v-.717h4.141v6.699h-.718Zm-1.563-4.419h-1.86v-.718h2.578v5.137h-.718v-4.419Zm16.158 4.419V11.675h6.001v11.328h-6.001Zm6.006 0V11.675h6.001v11.328h-6.001Zm9.428 0V11.675h.718v11.328h-.718Zm-1.562 0V11.675h.718v11.328h-.718Zm4.145 0V11.675h6.001v11.328h-6.001Zm6.006 0V11.675h6.001v11.328h-6.001Zm8.584 0h-.718v-6.7h4.141v.718h-3.423v5.982Zm1.563-4.419v4.419h-.718v-5.137h2.578v.718h-1.86Zm7.866-1.563h-6.001v-.717h6.001v.718Zm0 1.563h-6.001v-.718h6.001v.718Zm6.006-1.563h-6.001v-.717h6.001v.718Zm0 1.563h-6.001v-.718h6.001v.718Zm.005 4.419V11.675h6.001v11.328h-6.001Zm6.005 0V11.675h6.001v11.328h-6.001Zm9.429 0V17.02h-3.423v-.717h4.141v6.699h-.718Zm-1.562-4.419h-1.861v-.718h2.578v5.137h-.717v-4.419Zm4.145 4.419V11.675h6.001v11.328h-6.001Zm6.006 0V11.675h6.001v11.328h-6.001Zm6.006 0V11.675h6.001v11.328h-6.001Zm6.006 0V11.675h6.001v11.328h-6.001Zm9.428 0V17.02h-3.422v-.717h4.14v6.699h-.718Zm-1.562-4.419h-1.86v-.718h2.578v5.137h-.718v-4.419Zm10.151 4.419V11.675h6.001v11.328h-6.001Zm6.006 0V11.675h6.001v11.328h-6.001Zm6.006 0V11.675h6.001v11.328h-6.001Zm6.006 0V11.675h6.001v11.328h-6.001Zm9.429 0V11.675h.717v11.328h-.717Zm-1.563 0V11.675h.718v11.328h-.718Zm4.146 0V11.675h6.001v11.328h-6.001Zm6.005 0V11.675h6.001v11.328h-6.001Zm8.584 0h-.717v-6.7h4.14v.718h-3.423v5.982Zm1.563-4.419v4.419h-.718v-5.137h2.578v.718h-1.86Zm7.866-1.563h-6.001v-.717h6.001v.718Zm0 1.563h-6.001v-.718h6.001v.718Zm6.006-1.563h-6.001v-.717h6.001v.718Zm0 1.563h-6.001v-.718h6.001v.718Zm6.006-1.563h-6.001v-.717h6.001v.718Zm0 1.563h-6.001v-.718h6.001v.718Zm6.006-1.563h-6.001v-.717h6.001v.718Zm0 1.563h-6.001v-.718h6.001v.718Zm3.427-6.91h.718v6.91h-4.14v-.718h3.422v-6.191Zm-1.562 4.63v-4.63h.718v5.348h-2.578v-.718h1.86Zm4.145 6.699V11.675h6.001v11.328h-6.001Zm6.006 0V11.675h6.001v11.328h-6.001Zm8.584 0h-.717v-6.7h4.14v.718h-3.423v5.982Zm1.563-4.419v4.419h-.718v-5.137h2.578v.718h-1.86Zm7.866-1.563h-6.001v-.717h6.001v.718Zm0 1.563h-6.001v-.718h6.001v.718Zm6.006-1.563h-6.001v-.717h6.001v.718Zm0 1.563h-6.001v-.718h6.001v.718Zm6.006-1.563h-6.001v-.717h6.001v.718Zm0 1.563h-6.001v-.718h6.001v.718Zm6.006-1.563h-6.001v-.717h6.001v.718Zm0 1.563h-6.001v-.718h6.001v.718Zm3.427-6.91h.718v6.91h-4.141v-.718h3.423v-6.191Zm-1.562 4.63v-4.63h.718v5.348h-2.579v-.718h1.861ZM0 34.003V22.675h6.001v11.328H0Zm6.006 0V22.675h6v11.328h-6Zm6.006 0V22.675h6v11.328h-6Zm6.006 0V22.675h6v11.328h-6Zm6.005 0V22.675h6.001v11.328h-6Zm6.006 0V22.675h6.001v11.328h-6Zm8.584 0h-.718v-6.7h4.141v.718h-3.423v5.982Zm1.563-4.419v4.419h-.718v-5.137h2.578v.718h-1.86Zm5.288-6.91h.718v6.91H42.04v-.718h3.423v-6.191Zm-1.563 4.63v-4.63h.718v5.348h-2.578v-.718h1.86Zm4.146 6.699V22.675h6v11.328h-6Zm6.006 0V22.675h6v11.328h-6Zm6.006 0V22.675h6v11.328h-6Zm6.005 0V22.675h6.001v11.328h-6Zm6.006 0V22.675h6.001v11.328h-6Zm6.006 0V22.675h6.001v11.328h-6Zm6.006 0V22.675h6.001v11.328h-6.001Zm9.429 0V22.675h.718v11.328h-.718Zm-1.563 0V22.675h.718v11.328h-.718Zm4.146 0V22.675h6.001v11.328h-6.001Zm6.006 0V22.675h6.001v11.328H102.1Zm8.584 0h-.718v-6.7h4.14v.718h-3.422v5.982Zm1.562-4.419v4.419h-.718v-5.137h2.578v.718h-1.86Zm1.865 4.419V22.675h6.001v11.328h-6.001Zm6.006 0V22.675h6.001v11.328h-6.001Zm9.429 0V28.02h-3.423v-.717h4.141v6.699h-.718Zm-1.563-4.419h-1.86v-.718h2.578v5.137h-.718v-4.419Zm10.152 4.419V22.675h6.001v11.328h-6.001Zm6.006 0V22.675h6.001v11.328h-6.001Zm9.428 0V22.675h.718v11.328h-.718Zm-1.562 0V22.675h.718v11.328h-.718Zm4.145 0V22.675h6.001v11.328h-6.001Zm6.006 0V22.675h6.001v11.328h-6.001Zm9.429 0V22.675h.718v11.328h-.718Zm-1.563 0V22.675h.718v11.328h-.718Zm16.158 0V22.675h6.001v11.328h-6.001Zm6.006 0V22.675h6v11.328h-6Zm9.428 0V22.675h.718v11.328h-.718Zm-1.562 0V22.675h.717v11.328h-.717Zm28.169 0V22.675h6.001v11.328h-6.001Zm6.006 0V22.675h6v11.328h-6Zm8.583 0h-.717v-6.7h4.14v.718h-3.423v5.982Zm1.563-4.419v4.419h-.718v-5.137h2.578v.718h-1.86Zm1.865 4.419V22.675h6.001v11.328h-6.001Zm6.006 0V22.675h6.001v11.328h-6.001Zm9.429 0V28.02h-3.423v-.717h4.141v6.699h-.718Zm-1.563-4.419h-1.86v-.718h2.578v5.137h-.718v-4.419Zm10.152 4.419V22.675h6.001v11.328h-6.001Zm6.006 0V22.675h6.001v11.328h-6.001Zm9.428 0V22.675h.718v11.328h-.718Zm-1.562 0V22.675h.718v11.328h-.718Zm4.145 0V22.675h6.001v11.328h-6.001Zm6.006 0V22.675h6.001v11.328h-6.001Zm6.006 0V22.675h6.001v11.328h-6.001Zm6.006 0V22.675h6.001v11.328h-6.001Zm6.006 0V22.675h6.001v11.328h-6.001Zm6.006 0V22.675h6.001v11.328h-6.001Zm6.005 0V22.675h6.001v11.328h-6.001Zm9.429 0V22.675h.718v11.328h-.718Zm-1.562 0V22.675h.717v11.328h-.717Zm4.145 0V22.675h6.001v11.328h-6.001Zm6.006 0V22.675h6.001v11.328h-6.001Zm8.584 0h-.718v-6.7h4.141v.718h-3.423v5.982Zm1.562-4.419v4.419h-.717v-5.137h2.578v.718h-1.861Zm1.866 4.419V22.675h6.001v11.328h-6.001Zm6.006 0V22.675h6.001v11.328h-6.001Zm6.005 0V22.675h6.001v11.328h-6.001Zm6.006 0V22.675h6.001v11.328h-6.001Zm8.584 0h-.718v-6.7h4.141v.718h-3.423v5.982Zm1.563-4.419v4.419h-.718v-5.137h2.578v.718h-1.86Zm1.865 4.419V22.675h6.001v11.328h-6.001Zm6.006 0V22.675h6.001v11.328h-6.001Zm9.429 0V22.675h.717v11.328h-.717Zm-1.563 0V22.675h.718v11.328h-.718Zm4.146 0V22.675h6.001v11.328h-6.001Zm6.005 0V22.675h6.001v11.328h-6.001Zm6.006 0V22.675h6.001v11.328h-6.001Zm6.006 0V22.675h6.001v11.328h-6.001Zm6.006 0V22.675h6.001v11.328h-6.001Zm9.429 0V28.02h-3.423v-.717h4.14v6.699h-.717Zm-1.563-4.419h-1.86v-.718H435v5.137h-.718v-4.419Zm16.157 4.419V22.675h6.001v11.328h-6.001Zm6.006 0V22.675h6.001v11.328h-6.001Zm6.006 0V22.675h6.001v11.328h-6.001Zm6.006 0V22.675h6.001v11.328h-6.001Zm6.006 0V22.675h6.001v11.328h-6.001Zm6.006 0V22.675h6.001v11.328h-6.001Zm6.006 0V22.675h6.001v11.328h-6.001Zm9.428 0V28.02h-3.423v-.717h4.141v6.699h-.718Zm-1.562-4.419h-1.861v-.718h2.579v5.137h-.718v-4.419ZM0 45.003V33.675h6.001v11.328H0Zm6.006 0V33.675h6v11.328h-6Zm8.584 0h-.718v-6.7h4.14v.719H14.59v5.98Zm1.562-4.419v4.419h-.717v-5.137h2.578v.718h-1.86Zm7.867-1.563h-6.001v-.717h6v.718Zm0 1.563h-6.001v-.718h6v.718Zm6.005-1.563h-6v-.717h6v.718Zm0 1.563h-6v-.718h6v.718Zm.005 4.419V33.675h6.001v11.328h-6Zm6.006 0V33.675h6.001v11.328h-6Zm9.429 0v-5.981H42.04v-.718h4.14v6.699h-.717ZM43.9 40.584h-1.86v-.718h2.578v5.137h-.718v-4.419Zm4.146 4.419V33.675h6v11.328h-6Zm6.006 0V33.675h6v11.328h-6Zm8.584 0h-.718v-6.7h4.14v.719h-3.422v5.98Zm1.562-4.419v4.419h-.718v-5.137h2.579v.718H64.2Zm7.866-1.563h-6v-.717h6v.718Zm0 1.563h-6v-.718h6v.718Zm6.006-1.563h-6v-.717h6v.718Zm0 1.563h-6v-.718h6v.718Zm.005 4.419V33.675h6.001v11.328h-6Zm6.006 0V33.675h6.001v11.328h-6.001Zm9.429 0V33.675h.718v11.328h-.718Zm-1.563 0V33.675h.718v11.328h-.718Zm4.146 0V33.675h6.001v11.328h-6.001Zm6.006 0V33.675h6.001v11.328H102.1Zm9.428 0V33.675h.718v11.328h-.718Zm-1.562 0V33.675h.718v11.328h-.718Zm6.723-11.328v6.191h3.423v.718h-4.14v-6.91h.717Zm1.563 4.629h1.86v.718h-2.578v-5.347h.718v4.629Zm1.865 6.699V33.675h6.001v11.328h-6.001Zm6.006 0V33.675h6.001v11.328h-6.001Zm9.429 0v-5.981h-3.423v-.718h4.141v6.699h-.718Zm-1.563-4.419h-1.86v-.718h2.578v5.137h-.718v-4.419Zm4.146 4.419V33.675h6.001v11.328h-6.001Zm6.006 0V33.675h6.001v11.328h-6.001Zm9.428 0V33.675h.718v11.328h-.718Zm-1.562 0V33.675h.718v11.328h-.718Zm4.145 0V33.675h6.001v11.328h-6.001Zm6.006 0V33.675h6.001v11.328h-6.001Zm9.429 0V33.675h.718v11.328h-.718Zm-1.563 0V33.675h.718v11.328h-.718Zm16.158 0V33.675h6.001v11.328h-6.001Zm6.006 0V33.675h6v11.328h-6Zm9.428 0V33.675h.718v11.328h-.718Zm-1.562 0V33.675h.717v11.328h-.717Zm28.169 0V33.675h6.001v11.328h-6.001Zm6.006 0V33.675h6v11.328h-6Zm9.428 0V33.675h.718v11.328h-.718Zm-1.562 0V33.675h.717v11.328h-.717Zm6.723-11.328v6.191h3.423v.718h-4.14v-6.91h.717Zm1.563 4.629h1.86v.718h-2.578v-5.347h.718v4.629Zm1.865 6.699V33.675h6.001v11.328h-6.001Zm6.006 0V33.675h6.001v11.328h-6.001Zm9.429 0v-5.981h-3.423v-.718h4.14v6.699h-.717Zm-1.563-4.419h-1.86v-.718h2.578v5.137h-.718v-4.419Zm4.146 4.419V33.675h6.001v11.328h-6.001Zm6.006 0V33.675h6.001v11.328h-6.001Zm9.428 0V33.675h.718v11.328h-.718Zm-1.562 0V33.675h.718v11.328h-.718Zm4.145 0V33.675h6.001v11.328h-6.001Zm6.006 0V33.675h6.001v11.328h-6.001Zm8.584 0h-.718v-6.7h4.141v.719h-3.423v5.98Zm1.563-4.419v4.419h-.718v-5.137h2.578v.718h-1.86Zm7.866-1.563h-6.001v-.717h6.001v.718Zm0 1.563h-6.001v-.718h6.001v.718Zm6.006-1.563h-6.001v-.717h6.001v.718Zm0 1.563h-6.001v-.718h6.001v.718Zm.005 4.419V33.675h6.001v11.328h-6.001Zm6.005 0V33.675h6.001v11.328h-6.001Zm9.429 0V33.675h.718v11.328h-.718Zm-1.562 0V33.675h.717v11.328h-.717Zm4.145 0V33.675h6.001v11.328h-6.001Zm6.006 0V33.675h6.001v11.328h-6.001Zm9.429 0V33.675h.717v11.328h-.717Zm-1.563 0V33.675h.718v11.328h-.718Zm6.724-11.328v6.191h3.423v.718h-4.141v-6.91h.718Zm1.562 4.629h1.861v.718h-2.578v-5.347h.717v4.629Zm1.866 6.699V33.675h6.001v11.328h-6.001Zm6.005 0V33.675h6.001v11.328h-6.001Zm8.584 0h-.717v-6.7h4.14v.719h-3.423v5.98Zm1.563-4.419v4.419h-.718v-5.137h2.578v.718h-1.86Zm5.288-6.91h.718v6.91h-4.141v-.718h3.423v-6.191Zm-1.563 4.63v-4.63h.718v5.348h-2.578v-.718h1.86Zm4.146 6.699V33.675h6.001v11.328h-6.001Zm6.006 0V33.675h6.001v11.328h-6.001Zm9.429 0V33.675h.717v11.328h-.717Zm-1.563 0V33.675h.718v11.328h-.718Zm4.146 0V33.675h6.001v11.328h-6.001Zm6.005 0V33.675h6.001v11.328h-6.001Zm8.584 0h-.717v-6.7h4.14v.719h-3.423v5.98Zm1.563-4.419v4.419h-.718v-5.137h2.578v.718h-1.86Zm7.866-1.563h-6.001v-.717h6.001v.718Zm0 1.563h-6.001v-.718h6.001v.718Zm6.006-1.563h-6.001v-.717h6.001v.718Zm0 1.563h-6.001v-.718h6.001v.718Zm3.428-6.91h.717v6.91h-4.14v-.718h3.423v-6.191Zm-1.563 4.63v-4.63H435v5.348h-2.578v-.718h1.86Zm18.736-4.63v6.192h3.422v.718h-4.14v-6.91h.718Zm1.562 4.63h1.86v.718h-2.578v-5.347h.718v4.629Zm7.866.718h-6.001v-.718h6.001v.718Zm0 1.562h-6.001v-.718h6.001v.718Zm6.006-1.563h-6.001v-.717h6.001v.718Zm0 1.563h-6.001v-.718h6.001v.718Zm6.006-1.563h-6.001v-.717h6.001v.718Zm0 1.563h-6.001v-.718h6.001v.718Zm6.006-1.563h-6.001v-.717h6.001v.718Zm0 1.563h-6.001v-.718h6.001v.718Zm.005 4.419V33.675h6.001v11.328h-6.001Zm6.006 0V33.675h6.001v11.328h-6.001Zm9.428 0V33.675h.718v11.328h-.718Zm-1.562 0V33.675h.718v11.328h-.718ZM0 56.003V44.675h6.001v11.328H0Zm6.006 0V44.675h6v11.328h-6Zm6.006 0V44.675h6v11.328h-6Zm6.006 0V44.675h6v11.328h-6Zm6.005 0V44.675h6.001v11.328h-6Zm6.006 0V44.675h6.001v11.328h-6Zm8.584 0h-.718v-6.7h4.141v.719h-3.423v5.98Zm1.563-4.419v4.419h-.718v-5.137h2.578v.718h-1.86Zm5.288-6.91h.718v6.91H42.04v-.718h3.423v-6.191Zm-1.563 4.63v-4.63h.718v5.348h-2.578v-.718h1.86Zm4.146 6.699V44.675h6v11.328h-6Zm6.006 0V44.675h6v11.328h-6Zm9.428 0V44.675h.718v11.328h-.718Zm-1.562 0V44.675h.718v11.328h-.718Zm16.157 0V44.675h6.001v11.328h-6Zm6.006 0V44.675h6.001v11.328h-6.001Zm9.429 0V44.675h.718v11.328h-.718Zm-1.563 0V44.675h.718v11.328h-.718Zm4.146 0V44.675h6.001v11.328h-6.001Zm6.006 0V44.675h6.001v11.328H102.1Zm9.428 0V44.675h.718v11.328h-.718Zm-1.562 0V44.675h.718v11.328h-.718Zm12.729-11.328v6.191h3.423v.718h-4.14v-6.91h.717Zm1.563 4.629h1.86v.718h-2.578v-5.347h.718v4.629Zm1.865 6.699V44.675h6.001v11.328h-6.001Zm6.006 0V44.675h6.001v11.328h-6.001Zm6.006 0V44.675h6.001v11.328h-6.001Zm6.006 0V44.675h6.001v11.328h-6.001Zm9.428 0V44.675h.718v11.328h-.718Zm-1.562 0V44.675h.718v11.328h-.718Zm4.145 0V44.675h6.001v11.328h-6.001Zm6.006 0V44.675h6.001v11.328h-6.001Zm6.006 0V44.675h6.001v11.328h-6.001Zm6.006 0V44.675h6.001v11.328h-6.001Zm6.006 0V44.675h6.001v11.328h-6.001Zm6.006 0V44.675h6.001v11.328h-6.001Zm8.584 0h-.718v-6.7h4.14v.719h-3.422v5.98Zm1.562-4.419v4.419h-.718v-5.137h2.578v.718h-1.86Zm5.288-6.91h.718v6.91h-4.141v-.718h3.423v-6.191Zm-1.562 4.63v-4.63h.717v5.348h-2.578v-.718h1.861Zm28.169 6.699V44.675h6.001v11.328h-6.001Zm6.006 0V44.675h6v11.328h-6Zm9.428 0V44.675h.718v11.328h-.718Zm-1.562 0V44.675h.717v11.328h-.717Zm12.729-11.328v6.191h3.423v.718h-4.141v-6.91h.718Zm1.563 4.629h1.86v.718h-2.578v-5.347h.718v4.629Zm1.865 6.699V44.675h6.001v11.328h-6.001Zm6.006 0V44.675h6.001v11.328h-6.001Zm6.006 0V44.675h6.001v11.328h-6.001Zm6.006 0V44.675h6.001v11.328h-6.001Zm9.428 0V44.675h.718v11.328h-.718Zm-1.562 0V44.675h.718v11.328h-.718Zm4.145 0V44.675h6.001v11.328h-6.001Zm6.006 0V44.675h6.001v11.328h-6.001Zm9.429 0V44.675h.718v11.328h-.718Zm-1.563 0V44.675h.718v11.328h-.718Zm16.158 0V44.675h6.001v11.328h-6.001Zm6.005 0V44.675h6.001v11.328h-6.001Zm9.429 0V44.675h.718v11.328h-.718Zm-1.562 0V44.675h.717v11.328h-.717Zm4.145 0V44.675h6.001v11.328h-6.001Zm6.006 0V44.675h6.001v11.328h-6.001Zm9.429 0V44.675h.717v11.328h-.717Zm-1.563 0V44.675h.718v11.328h-.718Zm12.73-11.328v6.191h3.423v.718h-4.141v-6.91h.718Zm1.562 4.629h1.861v.718h-2.579v-5.347h.718v4.629Zm7.866.718h-6.001v-.718h6.001v.718Zm0 1.562h-6.001v-.718h6.001v.718Zm3.428-6.91h.718v6.91h-4.141v-.718h3.423v-6.191Zm-1.562 4.63v-4.63h.717v5.348h-2.578v-.718h1.861Zm10.151 6.699V44.675h6.001v11.328h-6.001Zm6.006 0V44.675h6.001v11.328h-6.001Zm9.429 0V44.675h.717v11.328h-.717Zm-1.563 0V44.675h.718v11.328h-.718Zm4.146 0V44.675h6.001v11.328h-6.001Zm6.005 0V44.675h6.001v11.328h-6.001Zm6.006 0V44.675h6.001v11.328h-6.001Zm6.006 0V44.675h6.001v11.328h-6.001Zm6.006 0V44.675h6.001v11.328h-6.001Zm6.006 0V44.675h6.001v11.328h-6.001Zm6.006 0V44.675h6.001v11.328h-6.001Zm9.428 0v-5.981h-3.422v-.718h4.14v6.699h-.718Zm-1.562-4.419h-1.86v-.718h2.578v5.137h-.718v-4.419Zm4.145 4.419V44.675h6.001v11.328h-6.001Zm6.006 0V44.675h6.001v11.328h-6.001Zm6.006 0V44.675h6.001v11.328h-6.001Zm6.006 0V44.675h6.001v11.328h-6.001Zm6.006 0V44.675h6.001v11.328h-6.001Zm6.006 0V44.675h6.001v11.328h-6.001Zm6.006 0V44.675h6.001v11.328h-6.001Zm9.428 0V44.675h.718v11.328h-.718Zm-1.562 0V44.675h.718v11.328h-.718ZM2.578 55.675v6.191h3.423v.718h-4.14v-6.91h.717Zm1.563 4.629H6v.718H3.423v-5.347h.718v4.629Zm7.866.718H6.006v-.718h6v.718Zm0 1.562H6.006v-.718h6v.718Zm6.006-1.563h-6.001v-.717h6v.718Zm0 1.563h-6.001v-.718h6v.718Zm6.006-1.563h-6.001v-.717h6v.718Zm0 1.563h-6.001v-.718h6v.718Zm6.005-1.563h-6v-.717h6v.718Zm0 1.563h-6v-.718h6v.718Zm6.006-1.563h-6v-.717h6v.718Zm0 1.563h-6v-.718h6v.718Zm3.428-6.91h.718v6.91h-4.14v-.718h3.422v-6.191Zm-1.563 4.63v-4.63h.718v5.348h-2.578v-.718h1.86Zm12.73-4.63v6.192h3.423v.718h-4.14v-6.91h.717Zm1.563 4.63h1.86v.718H51.47v-5.347h.718v4.629Zm7.866.718h-6.001v-.718h6v.718Zm0 1.562h-6.001v-.718h6v.718Zm3.427-6.91h.718v6.91h-4.14v-.718h3.422v-6.191Zm-1.562 4.63v-4.63h.718v5.348h-2.578v-.718h1.86Zm18.735-4.63v6.192h3.423v.718h-4.14v-6.91h.717Zm1.563 4.63h1.86v.718H81.5v-5.347h.718v4.629Zm7.866.718h-6.001v-.718h6.001v.718Zm0 1.562h-6.001v-.718h6.001v.718Zm3.428-6.91h.718v6.91h-4.141v-.718h3.423v-6.191Zm-1.563 4.63v-4.63h.718v5.348h-2.578v-.718h1.86Zm6.724-4.63v6.192h3.423v.718h-4.14v-6.91h.717Zm1.562 4.63h1.861v.718h-2.578v-5.347h.717v4.629Zm7.867.718H102.1v-.718h6.001v.718Zm0 1.562H102.1v-.718h6.001v.718Zm3.427-6.91h.718v6.91h-4.141v-.718h3.423v-6.191Zm-1.562 4.63v-4.63h.718v5.348h-2.579v-.718h1.861Zm18.735-4.63v6.192h3.423v.718h-4.141v-6.91h.718Zm1.563 4.63h1.86v.718h-2.578v-5.347h.718v4.629Zm7.866.718h-6.001v-.718h6.001v.718Zm0 1.562h-6.001v-.718h6.001v.718Zm6.006-1.563h-6.001v-.717h6.001v.718Zm0 1.563h-6.001v-.718h6.001v.718Zm6.006-1.563h-6.001v-.717h6.001v.718Zm0 1.563h-6.001v-.718h6.001v.718Zm3.427-6.91h.718v6.91h-4.141v-.718h3.423v-6.191Zm-1.562 4.63v-4.63h.718v5.348h-2.579v-.718h1.861Zm6.723-4.63v6.192h3.423v.718h-4.14v-6.91h.717Zm1.563 4.63h1.86v.718h-2.578v-5.347h.718v4.629Zm7.866.718h-6.001v-.718h6.001v.718Zm0 1.562h-6.001v-.718h6.001v.718Zm6.006-1.563h-6.001v-.717h6.001v.718Zm0 1.563h-6.001v-.718h6.001v.718Zm6.006-1.563h-6.001v-.717h6.001v.718Zm0 1.563h-6.001v-.718h6.001v.718Zm6.006-1.563h-6.001v-.717h6.001v.718Zm0 1.563h-6.001v-.718h6.001v.718Zm6.006-1.563h-6.001v-.717h6.001v.718Zm0 1.563h-6.001v-.718h6.001v.718Zm3.427-6.91h.718v6.91h-4.14v-.718h3.422v-6.191Zm-1.562 4.63v-4.63h.718v5.348h-2.578v-.718h1.86Zm36.753-4.63v6.192h3.423v.718h-4.141v-6.91h.718Zm1.562 4.63h1.861v.718h-2.578v-5.347h.717v4.629Zm7.866.718h-6v-.718h6v.718Zm0 1.562h-6v-.718h6v.718Zm3.428-6.91h.718v6.91h-4.141v-.718h3.423v-6.191Zm-1.562 4.63v-4.63h.717v5.348h-2.578v-.718h1.861Zm18.735-4.63v6.192h3.423v.718h-4.141v-6.91h.718Zm1.563 4.63h1.86v.718h-2.578v-5.347h.718v4.629Zm7.866.718h-6.001v-.718h6.001v.718Zm0 1.562h-6.001v-.718h6.001v.718Zm6.006-1.563h-6.001v-.717h6.001v.718Zm0 1.563h-6.001v-.718h6.001v.718Zm6.006-1.563h-6.001v-.717h6.001v.718Zm0 1.563h-6.001v-.718h6.001v.718Zm3.427-6.91h.718v6.91h-4.141v-.718h3.423v-6.191Zm-1.562 4.63v-4.63h.718v5.348h-2.579v-.718h1.861Zm6.723-4.63v6.192h3.423v.718h-4.14v-6.91h.717Zm1.563 4.63h1.86v.718h-2.578v-5.347h.718v4.629Zm7.866.718h-6.001v-.718h6.001v.718Zm0 1.562h-6.001v-.718h6.001v.718Zm3.428-6.91h.718v6.91h-4.141v-.718h3.423v-6.191Zm-1.563 4.63v-4.63h.718v5.348h-2.578v-.718h1.86Zm18.736-4.63v6.192h3.423v.718h-4.141v-6.91h.718Zm1.562 4.63h1.861v.718h-2.579v-5.347h.718v4.629Zm7.866.718h-6.001v-.718h6.001v.718Zm0 1.562h-6.001v-.718h6.001v.718Zm3.428-6.91h.718v6.91h-4.141v-.718h3.423v-6.191Zm-1.562 4.63v-4.63h.717v5.348h-2.578v-.718h1.861Zm6.723-4.63v6.192h3.423v.718h-4.141v-6.91h.718Zm1.563 4.63h1.86v.718h-2.578v-5.347h.718v4.629Zm7.866.718h-6.001v-.718h6.001v.718Zm0 1.562h-6.001v-.718h6.001v.718Zm3.428-6.91h.717v6.91h-4.14v-.718h3.423v-6.191Zm-1.563 4.63v-4.63h.718v5.348h-2.578v-.718h1.86Zm36.753-4.63v6.192h3.423v.718h-4.141v-6.91h.718Zm1.563 4.63h1.86v.718h-2.578v-5.347h.718v4.629Zm7.866.718h-6.001v-.718h6.001v.718Zm0 1.562h-6.001v-.718h6.001v.718Zm3.428-6.91h.717v6.91h-4.14v-.718h3.423v-6.191Zm-1.563 4.63v-4.63h.718v5.348h-2.578v-.718h1.86Zm6.724-4.63v6.192h3.423v.718h-4.141v-6.91h.718Zm1.562 4.63h1.861v.718h-2.579v-5.347h.718v4.629Zm7.866.718h-6.001v-.718h6.001v.718Zm0 1.562h-6.001v-.718h6.001v.718Zm6.006-1.563h-6.001v-.717h6.001v.718Zm0 1.563h-6.001v-.718h6.001v.718Zm6.006-1.563h-6.001v-.717h6.001v.718Zm0 1.563h-6.001v-.718h6.001v.718Zm6.006-1.563h-6.001v-.717h6.001v.718Zm0 1.563h-6.001v-.718h6.001v.718Zm6.006-1.563h-6.001v-.717h6.001v.718Zm0 1.563h-6.001v-.718h6.001v.718Zm6.006-1.563h-6.001v-.717h6.001v.718Zm0 1.563h-6.001v-.718h6.001v.718Zm3.427-6.91h.718v6.91h-4.14v-.718h3.422v-6.191Zm-1.562 4.63v-4.63h.718v5.348h-2.578v-.718h1.86Zm6.724-4.63v6.192h3.422v.718h-4.14v-6.91h.718Zm1.562 4.63h1.86v.718h-2.578v-5.347h.718v4.629Zm7.866.718h-6.001v-.718h6.001v.718Zm0 1.562h-6.001v-.718h6.001v.718Zm6.006-1.563h-6.001v-.717h6.001v.718Zm0 1.563h-6.001v-.718h6.001v.718Zm6.006-1.563h-6.001v-.717h6.001v.718Zm0 1.563h-6.001v-.718h6.001v.718Zm6.006-1.563h-6.001v-.717h6.001v.718Zm0 1.563h-6.001v-.718h6.001v.718Zm6.006-1.563h-6.001v-.717h6.001v.718Zm0 1.563h-6.001v-.718h6.001v.718Zm6.006-1.563h-6.001v-.717h6.001v.718Zm0 1.563h-6.001v-.718h6.001v.718Zm3.427-6.91h.718v6.91h-4.141v-.718h3.423v-6.191Zm-1.562 4.63v-4.63h.718v5.348h-2.579v-.718h1.861Z" fill="currentColor"/>
</svg>
